<svg xmlns="http://www.w3.org/2000/svg" xmlns:xlink="http://www.w3.org/1999/xlink" width="490" height="490" viewBox="0 0 1960 1960">
<defs>
  <clipPath id="clip550">
    <rect x="0" y="0" width="1960" height="1960"></rect>
  </clipPath>
</defs>
<path clip-path="url(#clip550)" d="M0 1960 L1960 1960 L1960 0 L0 0  Z" fill="#ffffff" fill-rule="evenodd" fill-opacity="1"></path>
<defs>
  <clipPath id="clip551">
    <rect x="392" y="196" width="1373" height="1373"></rect>
  </clipPath>
</defs>
<path clip-path="url(#clip550)" d="M503.372 1608.86 L1802.52 1608.86 L1802.52 263.948 L503.372 263.948  Z" fill="#ffffff" fill-rule="evenodd" fill-opacity="1"></path>
<defs>
  <clipPath id="clip552">
    <rect x="503" y="263" width="1300" height="1346"></rect>
  </clipPath>
</defs>
<polyline clip-path="url(#clip552)" style="stroke:#000000; stroke-linecap:round; stroke-linejoin:round; stroke-width:2; stroke-opacity:0.1; fill:none" points="540.141,1608.86 540.141,263.948 "></polyline>
<polyline clip-path="url(#clip552)" style="stroke:#000000; stroke-linecap:round; stroke-linejoin:round; stroke-width:2; stroke-opacity:0.1; fill:none" points="948.678,1608.86 948.678,263.948 "></polyline>
<polyline clip-path="url(#clip552)" style="stroke:#000000; stroke-linecap:round; stroke-linejoin:round; stroke-width:2; stroke-opacity:0.1; fill:none" points="1357.21,1608.86 1357.21,263.948 "></polyline>
<polyline clip-path="url(#clip552)" style="stroke:#000000; stroke-linecap:round; stroke-linejoin:round; stroke-width:2; stroke-opacity:0.1; fill:none" points="1765.75,1608.86 1765.75,263.948 "></polyline>
<polyline clip-path="url(#clip550)" style="stroke:#000000; stroke-linecap:round; stroke-linejoin:round; stroke-width:4; stroke-opacity:1; fill:none" points="503.372,1608.86 1802.52,1608.86 "></polyline>
<polyline clip-path="url(#clip550)" style="stroke:#000000; stroke-linecap:round; stroke-linejoin:round; stroke-width:4; stroke-opacity:1; fill:none" points="503.372,263.948 1802.52,263.948 "></polyline>
<polyline clip-path="url(#clip550)" style="stroke:#000000; stroke-linecap:round; stroke-linejoin:round; stroke-width:4; stroke-opacity:1; fill:none" points="540.141,1608.86 540.141,1589.97 "></polyline>
<polyline clip-path="url(#clip550)" style="stroke:#000000; stroke-linecap:round; stroke-linejoin:round; stroke-width:4; stroke-opacity:1; fill:none" points="948.678,1608.86 948.678,1589.97 "></polyline>
<polyline clip-path="url(#clip550)" style="stroke:#000000; stroke-linecap:round; stroke-linejoin:round; stroke-width:4; stroke-opacity:1; fill:none" points="1357.21,1608.86 1357.21,1589.97 "></polyline>
<polyline clip-path="url(#clip550)" style="stroke:#000000; stroke-linecap:round; stroke-linejoin:round; stroke-width:4; stroke-opacity:1; fill:none" points="1765.75,1608.86 1765.75,1589.97 "></polyline>
<path clip-path="url(#clip550)" d="M540.141 1640.66 Q535.175 1640.66 532.661 1645.56 Q530.178 1650.43 530.178 1660.23 Q530.178 1670 532.661 1674.9 Q535.175 1679.77 540.141 1679.77 Q545.138 1679.77 547.62 1674.9 Q550.135 1670 550.135 1660.23 Q550.135 1650.43 547.62 1645.56 Q545.138 1640.66 540.141 1640.66 M540.141 1635.56 Q548.13 1635.56 552.331 1641.9 Q556.564 1648.2 556.564 1660.23 Q556.564 1672.23 552.331 1678.56 Q548.13 1684.87 540.141 1684.87 Q532.152 1684.87 527.918 1678.56 Q523.717 1672.23 523.717 1660.23 Q523.717 1648.2 527.918 1641.9 Q532.152 1635.56 540.141 1635.56 Z" fill="#000000" fill-rule="nonzero" fill-opacity="1"></path><path clip-path="url(#clip550)" d="M935.31 1636.42 L960.55 1636.42 L960.55 1641.83 L941.198 1641.83 L941.198 1653.48 Q942.598 1653.01 943.999 1652.78 Q945.399 1652.53 946.8 1652.53 Q954.757 1652.53 959.404 1656.89 Q964.051 1661.25 964.051 1668.7 Q964.051 1676.37 959.276 1680.63 Q954.502 1684.87 945.813 1684.87 Q942.821 1684.87 939.702 1684.36 Q936.614 1683.85 933.304 1682.83 L933.304 1676.37 Q936.169 1677.93 939.224 1678.69 Q942.28 1679.46 945.686 1679.46 Q951.192 1679.46 954.407 1676.56 Q957.621 1673.66 957.621 1668.7 Q957.621 1663.73 954.407 1660.84 Q951.192 1657.94 945.686 1657.94 Q943.108 1657.94 940.529 1658.51 Q937.983 1659.09 935.31 1660.3 L935.31 1636.42 Z" fill="#000000" fill-rule="nonzero" fill-opacity="1"></path><path clip-path="url(#clip550)" d="M1322.41 1678.53 L1332.91 1678.53 L1332.91 1642.28 L1321.49 1644.57 L1321.49 1638.72 L1332.85 1636.42 L1339.28 1636.42 L1339.28 1678.53 L1349.78 1678.53 L1349.78 1683.94 L1322.41 1683.94 L1322.41 1678.53 Z" fill="#000000" fill-rule="nonzero" fill-opacity="1"></path><path clip-path="url(#clip550)" d="M1376.52 1640.66 Q1371.55 1640.66 1369.04 1645.56 Q1366.56 1650.43 1366.56 1660.23 Q1366.56 1670 1369.04 1674.9 Q1371.55 1679.77 1376.52 1679.77 Q1381.52 1679.77 1384 1674.9 Q1386.51 1670 1386.51 1660.23 Q1386.51 1650.43 1384 1645.56 Q1381.52 1640.66 1376.52 1640.66 M1376.52 1635.56 Q1384.51 1635.56 1388.71 1641.9 Q1392.94 1648.2 1392.94 1660.23 Q1392.94 1672.23 1388.71 1678.56 Q1384.51 1684.87 1376.52 1684.87 Q1368.53 1684.87 1364.3 1678.56 Q1360.09 1672.23 1360.09 1660.23 Q1360.09 1648.2 1364.3 1641.9 Q1368.53 1635.56 1376.52 1635.56 Z" fill="#000000" fill-rule="nonzero" fill-opacity="1"></path><path clip-path="url(#clip550)" d="M1731.63 1678.53 L1742.13 1678.53 L1742.13 1642.28 L1730.71 1644.57 L1730.71 1638.72 L1742.07 1636.42 L1748.5 1636.42 L1748.5 1678.53 L1759 1678.53 L1759 1683.94 L1731.63 1683.94 L1731.63 1678.53 Z" fill="#000000" fill-rule="nonzero" fill-opacity="1"></path><path clip-path="url(#clip550)" d="M1772.05 1636.42 L1797.29 1636.42 L1797.29 1641.83 L1777.94 1641.83 L1777.94 1653.48 Q1779.34 1653.01 1780.74 1652.78 Q1782.14 1652.53 1783.54 1652.53 Q1791.5 1652.53 1796.15 1656.89 Q1800.79 1661.25 1800.79 1668.7 Q1800.79 1676.37 1796.02 1680.63 Q1791.25 1684.87 1782.56 1684.87 Q1779.56 1684.87 1776.45 1684.36 Q1773.36 1683.85 1770.05 1682.83 L1770.05 1676.37 Q1772.91 1677.93 1775.97 1678.69 Q1779.02 1679.46 1782.43 1679.46 Q1787.94 1679.46 1791.15 1676.56 Q1794.37 1673.66 1794.37 1668.7 Q1794.37 1663.73 1791.15 1660.84 Q1787.94 1657.94 1782.43 1657.94 Q1779.85 1657.94 1777.27 1658.51 Q1774.73 1659.09 1772.05 1660.3 L1772.05 1636.42 Z" fill="#000000" fill-rule="nonzero" fill-opacity="1"></path><path clip-path="url(#clip550)" d="M1002.51 1719.05 L1008.94 1719.05 L1008.94 1766.57 L1002.51 1766.57 L1002.51 1719.05 Z" fill="#000000" fill-rule="nonzero" fill-opacity="1"></path><path clip-path="url(#clip550)" d="M1027.27 1720.8 L1027.27 1730.92 L1039.33 1730.92 L1039.33 1735.47 L1027.27 1735.47 L1027.27 1754.82 Q1027.27 1759.18 1028.45 1760.42 Q1029.66 1761.67 1033.32 1761.67 L1039.33 1761.67 L1039.33 1766.57 L1033.32 1766.57 Q1026.54 1766.57 1023.96 1764.05 Q1021.38 1761.51 1021.38 1754.82 L1021.38 1735.47 L1017.09 1735.47 L1017.09 1730.92 L1021.38 1730.92 L1021.38 1720.8 L1027.27 1720.8 Z" fill="#000000" fill-rule="nonzero" fill-opacity="1"></path><path clip-path="url(#clip550)" d="M1077.53 1747.28 L1077.53 1750.14 L1050.6 1750.14 Q1050.98 1756.19 1054.23 1759.37 Q1057.51 1762.53 1063.33 1762.53 Q1066.71 1762.53 1069.86 1761.7 Q1073.04 1760.87 1076.16 1759.22 L1076.16 1764.75 Q1073.01 1766.09 1069.7 1766.79 Q1066.39 1767.49 1062.98 1767.49 Q1054.45 1767.49 1049.46 1762.53 Q1044.49 1757.56 1044.49 1749.09 Q1044.49 1740.34 1049.2 1735.22 Q1053.94 1730.06 1061.96 1730.06 Q1069.16 1730.06 1073.33 1734.71 Q1077.53 1739.32 1077.53 1747.28 M1071.67 1745.56 Q1071.61 1740.75 1068.97 1737.89 Q1066.36 1735.03 1062.03 1735.03 Q1057.13 1735.03 1054.17 1737.79 Q1051.24 1740.56 1050.79 1745.59 L1071.67 1745.56 Z" fill="#000000" fill-rule="nonzero" fill-opacity="1"></path><path clip-path="url(#clip550)" d="M1107.8 1736.39 Q1106.81 1735.82 1105.63 1735.57 Q1104.49 1735.28 1103.09 1735.28 Q1098.12 1735.28 1095.45 1738.53 Q1092.81 1741.74 1092.81 1747.79 L1092.81 1766.57 L1086.92 1766.57 L1086.92 1730.92 L1092.81 1730.92 L1092.81 1736.46 Q1094.65 1733.21 1097.61 1731.65 Q1100.57 1730.06 1104.81 1730.06 Q1105.41 1730.06 1106.14 1730.16 Q1106.87 1730.22 1107.77 1730.38 L1107.8 1736.39 Z" fill="#000000" fill-rule="nonzero" fill-opacity="1"></path><path clip-path="url(#clip550)" d="M1130.14 1748.65 Q1123.04 1748.65 1120.31 1750.27 Q1117.57 1751.89 1117.57 1755.81 Q1117.57 1758.93 1119.61 1760.77 Q1121.67 1762.59 1125.21 1762.59 Q1130.08 1762.59 1133.01 1759.15 Q1135.97 1755.68 1135.97 1749.95 L1135.97 1748.65 L1130.14 1748.65 M1141.82 1746.23 L1141.82 1766.57 L1135.97 1766.57 L1135.97 1761.16 Q1133.96 1764.4 1130.97 1765.96 Q1127.98 1767.49 1123.65 1767.49 Q1118.17 1767.49 1114.93 1764.44 Q1111.71 1761.35 1111.71 1756.19 Q1111.71 1750.18 1115.72 1747.12 Q1119.76 1744.06 1127.75 1744.06 L1135.97 1744.06 L1135.97 1743.49 Q1135.97 1739.45 1133.29 1737.25 Q1130.65 1735.03 1125.84 1735.03 Q1122.79 1735.03 1119.89 1735.76 Q1117 1736.49 1114.32 1737.95 L1114.32 1732.54 Q1117.54 1731.3 1120.56 1730.7 Q1123.58 1730.06 1126.45 1730.06 Q1134.18 1730.06 1138 1734.07 Q1141.82 1738.08 1141.82 1746.23 Z" fill="#000000" fill-rule="nonzero" fill-opacity="1"></path><path clip-path="url(#clip550)" d="M1159.68 1720.8 L1159.68 1730.92 L1171.74 1730.92 L1171.74 1735.47 L1159.68 1735.47 L1159.68 1754.82 Q1159.68 1759.18 1160.86 1760.42 Q1162.06 1761.67 1165.73 1761.67 L1171.74 1761.67 L1171.74 1766.57 L1165.73 1766.57 Q1158.95 1766.57 1156.37 1764.05 Q1153.79 1761.51 1153.79 1754.82 L1153.79 1735.47 L1149.49 1735.47 L1149.49 1730.92 L1153.79 1730.92 L1153.79 1720.8 L1159.68 1720.8 Z" fill="#000000" fill-rule="nonzero" fill-opacity="1"></path><path clip-path="url(#clip550)" d="M1179.44 1730.92 L1185.3 1730.92 L1185.3 1766.57 L1179.44 1766.57 L1179.44 1730.92 M1179.44 1717.04 L1185.3 1717.04 L1185.3 1724.46 L1179.44 1724.46 L1179.44 1717.04 Z" fill="#000000" fill-rule="nonzero" fill-opacity="1"></path><path clip-path="url(#clip550)" d="M1211.37 1735.03 Q1206.66 1735.03 1203.92 1738.72 Q1201.18 1742.38 1201.18 1748.78 Q1201.18 1755.17 1203.89 1758.87 Q1206.62 1762.53 1211.37 1762.53 Q1216.05 1762.53 1218.78 1758.83 Q1221.52 1755.14 1221.52 1748.78 Q1221.52 1742.44 1218.78 1738.75 Q1216.05 1735.03 1211.37 1735.03 M1211.37 1730.06 Q1219.01 1730.06 1223.37 1735.03 Q1227.73 1739.99 1227.73 1748.78 Q1227.73 1757.53 1223.37 1762.53 Q1219.01 1767.49 1211.37 1767.49 Q1203.7 1767.49 1199.34 1762.53 Q1195.01 1757.53 1195.01 1748.78 Q1195.01 1739.99 1199.34 1735.03 Q1203.7 1730.06 1211.37 1730.06 Z" fill="#000000" fill-rule="nonzero" fill-opacity="1"></path><path clip-path="url(#clip550)" d="M1267.07 1745.05 L1267.07 1766.57 L1261.21 1766.57 L1261.21 1745.24 Q1261.21 1740.18 1259.24 1737.67 Q1257.26 1735.15 1253.32 1735.15 Q1248.57 1735.15 1245.84 1738.18 Q1243.1 1741.2 1243.1 1746.42 L1243.1 1766.57 L1237.21 1766.57 L1237.21 1730.92 L1243.1 1730.92 L1243.1 1736.46 Q1245.2 1733.24 1248.03 1731.65 Q1250.9 1730.06 1254.62 1730.06 Q1260.77 1730.06 1263.92 1733.88 Q1267.07 1737.67 1267.07 1745.05 Z" fill="#000000" fill-rule="nonzero" fill-opacity="1"></path><path clip-path="url(#clip550)" d="M1301.47 1731.97 L1301.47 1737.51 Q1298.99 1736.24 1296.32 1735.6 Q1293.64 1734.96 1290.78 1734.96 Q1286.42 1734.96 1284.22 1736.3 Q1282.06 1737.64 1282.06 1740.31 Q1282.06 1742.35 1283.62 1743.52 Q1285.18 1744.67 1289.89 1745.72 L1291.89 1746.17 Q1298.13 1747.5 1300.74 1749.95 Q1303.38 1752.37 1303.38 1756.73 Q1303.38 1761.7 1299.44 1764.59 Q1295.52 1767.49 1288.65 1767.49 Q1285.78 1767.49 1282.66 1766.92 Q1279.58 1766.38 1276.14 1765.26 L1276.14 1759.22 Q1279.38 1760.9 1282.54 1761.76 Q1285.69 1762.59 1288.77 1762.59 Q1292.91 1762.59 1295.14 1761.19 Q1297.37 1759.76 1297.37 1757.18 Q1297.37 1754.79 1295.74 1753.52 Q1294.15 1752.24 1288.71 1751.07 L1286.67 1750.59 Q1281.23 1749.44 1278.81 1747.09 Q1276.39 1744.7 1276.39 1740.56 Q1276.39 1735.53 1279.96 1732.8 Q1283.52 1730.06 1290.08 1730.06 Q1293.33 1730.06 1296.19 1730.54 Q1299.05 1731.02 1301.47 1731.97 Z" fill="#000000" fill-rule="nonzero" fill-opacity="1"></path><polyline clip-path="url(#clip552)" style="stroke:#000000; stroke-linecap:round; stroke-linejoin:round; stroke-width:2; stroke-opacity:0.1; fill:none" points="503.372,963.975 1802.52,963.975 "></polyline>
<polyline clip-path="url(#clip552)" style="stroke:#000000; stroke-linecap:round; stroke-linejoin:round; stroke-width:2; stroke-opacity:0.1; fill:none" points="503.372,302.012 1802.52,302.012 "></polyline>
<polyline clip-path="url(#clip550)" style="stroke:#000000; stroke-linecap:round; stroke-linejoin:round; stroke-width:4; stroke-opacity:1; fill:none" points="503.372,1608.86 503.372,263.948 "></polyline>
<polyline clip-path="url(#clip550)" style="stroke:#000000; stroke-linecap:round; stroke-linejoin:round; stroke-width:4; stroke-opacity:1; fill:none" points="1802.52,1608.86 1802.52,263.948 "></polyline>
<polyline clip-path="url(#clip550)" style="stroke:#000000; stroke-linecap:round; stroke-linejoin:round; stroke-width:4; stroke-opacity:1; fill:none" points="503.372,963.975 522.27,963.975 "></polyline>
<polyline clip-path="url(#clip550)" style="stroke:#000000; stroke-linecap:round; stroke-linejoin:round; stroke-width:4; stroke-opacity:1; fill:none" points="503.372,302.012 522.27,302.012 "></polyline>
<path clip-path="url(#clip550)" d="M251.379 991.19 L261.883 991.19 L261.883 954.937 L250.456 957.229 L250.456 951.372 L261.819 949.081 L268.249 949.081 L268.249 991.19 L278.752 991.19 L278.752 996.601 L251.379 996.601 L251.379 991.19 Z" fill="#000000" fill-rule="nonzero" fill-opacity="1"></path><path clip-path="url(#clip550)" d="M305.488 953.314 Q300.523 953.314 298.008 958.215 Q295.526 963.085 295.526 972.888 Q295.526 982.66 298.008 987.561 Q300.523 992.431 305.488 992.431 Q310.485 992.431 312.968 987.561 Q315.482 982.66 315.482 972.888 Q315.482 963.085 312.968 958.215 Q310.485 953.314 305.488 953.314 M305.488 948.221 Q313.477 948.221 317.678 954.555 Q321.911 960.857 321.911 972.888 Q321.911 984.888 317.678 991.222 Q313.477 997.524 305.488 997.524 Q297.499 997.524 293.266 991.222 Q289.064 984.888 289.064 972.888 Q289.064 960.857 293.266 954.555 Q297.499 948.221 305.488 948.221 Z" fill="#000000" fill-rule="nonzero" fill-opacity="1"></path><path clip-path="url(#clip550)" d="M321.911 940.111 L355.065 940.111 L355.065 944.507 L321.911 944.507 L321.911 940.111 Z" fill="#000000" fill-rule="nonzero" fill-opacity="1"></path><path clip-path="url(#clip550)" d="M377.512 923.741 Q373.478 923.741 371.435 927.723 Q369.418 931.68 369.418 939.645 Q369.418 947.584 371.435 951.567 Q373.478 955.524 377.512 955.524 Q381.572 955.524 383.589 951.567 Q385.632 947.584 385.632 939.645 Q385.632 931.68 383.589 927.723 Q381.572 923.741 377.512 923.741 M377.512 919.603 Q384.003 919.603 387.417 924.749 Q390.856 929.87 390.856 939.645 Q390.856 949.395 387.417 954.541 Q384.003 959.661 377.512 959.661 Q371.021 959.661 367.581 954.541 Q364.168 949.395 364.168 939.645 Q364.168 929.87 367.581 924.749 Q371.021 919.603 377.512 919.603 Z" fill="#000000" fill-rule="nonzero" fill-opacity="1"></path><path clip-path="url(#clip550)" d="M400.037 952.343 L405.493 952.343 L405.493 958.911 L400.037 958.911 L400.037 952.343 Z" fill="#000000" fill-rule="nonzero" fill-opacity="1"></path><path clip-path="url(#clip550)" d="M428.044 923.741 Q424.009 923.741 421.966 927.723 Q419.949 931.68 419.949 939.645 Q419.949 947.584 421.966 951.567 Q424.009 955.524 428.044 955.524 Q432.104 955.524 434.121 951.567 Q436.164 947.584 436.164 939.645 Q436.164 931.68 434.121 927.723 Q432.104 923.741 428.044 923.741 M428.044 919.603 Q434.535 919.603 437.948 924.749 Q441.388 929.87 441.388 939.645 Q441.388 949.395 437.948 954.541 Q434.535 959.661 428.044 959.661 Q421.553 959.661 418.113 954.541 Q414.7 949.395 414.7 939.645 Q414.7 929.87 418.113 924.749 Q421.553 919.603 428.044 919.603 Z" fill="#000000" fill-rule="nonzero" fill-opacity="1"></path><path clip-path="url(#clip550)" d="M450.62 920.301 L471.128 920.301 L471.128 924.698 L455.404 924.698 L455.404 934.163 Q456.542 933.775 457.68 933.594 Q458.818 933.387 459.956 933.387 Q466.421 933.387 470.197 936.93 Q473.972 940.473 473.972 946.524 Q473.972 952.757 470.093 956.222 Q466.214 959.661 459.154 959.661 Q456.723 959.661 454.189 959.248 Q451.68 958.834 448.991 958.006 L448.991 952.757 Q451.318 954.024 453.801 954.644 Q456.284 955.265 459.051 955.265 Q463.525 955.265 466.136 952.912 Q468.748 950.558 468.748 946.524 Q468.748 942.49 466.136 940.136 Q463.525 937.783 459.051 937.783 Q456.956 937.783 454.861 938.249 Q452.792 938.714 450.62 939.697 L450.62 920.301 Z" fill="#000000" fill-rule="nonzero" fill-opacity="1"></path><path clip-path="url(#clip550)" d="M292.524 329.227 L303.027 329.227 L303.027 292.974 L291.601 295.266 L291.601 289.409 L302.964 287.117 L309.393 287.117 L309.393 329.227 L319.896 329.227 L319.896 334.637 L292.524 334.637 L292.524 329.227 Z" fill="#000000" fill-rule="nonzero" fill-opacity="1"></path><path clip-path="url(#clip550)" d="M346.632 291.351 Q341.667 291.351 339.153 296.252 Q336.67 301.122 336.67 310.925 Q336.67 320.697 339.153 325.598 Q341.667 330.468 346.632 330.468 Q351.629 330.468 354.112 325.598 Q356.626 320.697 356.626 310.925 Q356.626 301.122 354.112 296.252 Q351.629 291.351 346.632 291.351 M346.632 286.258 Q354.621 286.258 358.823 292.592 Q363.056 298.894 363.056 310.925 Q363.056 322.925 358.823 329.258 Q354.621 335.56 346.632 335.56 Q338.643 335.56 334.41 329.258 Q330.209 322.925 330.209 310.925 Q330.209 298.894 334.41 292.592 Q338.643 286.258 346.632 286.258 Z" fill="#000000" fill-rule="nonzero" fill-opacity="1"></path><path clip-path="url(#clip550)" d="M376.4 261.778 Q372.366 261.778 370.323 265.76 Q368.306 269.717 368.306 277.682 Q368.306 285.621 370.323 289.604 Q372.366 293.56 376.4 293.56 Q380.46 293.56 382.477 289.604 Q384.52 285.621 384.52 277.682 Q384.52 269.717 382.477 265.76 Q380.46 261.778 376.4 261.778 M376.4 257.64 Q382.891 257.64 386.305 262.786 Q389.744 267.907 389.744 277.682 Q389.744 287.431 386.305 292.578 Q382.891 297.698 376.4 297.698 Q369.909 297.698 366.469 292.578 Q363.056 287.431 363.056 277.682 Q363.056 267.907 366.469 262.786 Q369.909 257.64 376.4 257.64 Z" fill="#000000" fill-rule="nonzero" fill-opacity="1"></path><path clip-path="url(#clip550)" d="M398.925 290.38 L404.381 290.38 L404.381 296.948 L398.925 296.948 L398.925 290.38 Z" fill="#000000" fill-rule="nonzero" fill-opacity="1"></path><path clip-path="url(#clip550)" d="M426.932 261.778 Q422.897 261.778 420.854 265.76 Q418.837 269.717 418.837 277.682 Q418.837 285.621 420.854 289.604 Q422.897 293.56 426.932 293.56 Q430.992 293.56 433.009 289.604 Q435.052 285.621 435.052 277.682 Q435.052 269.717 433.009 265.76 Q430.992 261.778 426.932 261.778 M426.932 257.64 Q433.423 257.64 436.836 262.786 Q440.276 267.907 440.276 277.682 Q440.276 287.431 436.836 292.578 Q433.423 297.698 426.932 297.698 Q420.441 297.698 417.001 292.578 Q413.588 287.431 413.588 277.682 Q413.588 267.907 417.001 262.786 Q420.441 257.64 426.932 257.64 Z" fill="#000000" fill-rule="nonzero" fill-opacity="1"></path><path clip-path="url(#clip550)" d="M460.628 261.778 Q456.594 261.778 454.551 265.76 Q452.534 269.717 452.534 277.682 Q452.534 285.621 454.551 289.604 Q456.594 293.56 460.628 293.56 Q464.688 293.56 466.705 289.604 Q468.748 285.621 468.748 277.682 Q468.748 269.717 466.705 265.76 Q464.688 261.778 460.628 261.778 M460.628 257.64 Q467.119 257.64 470.533 262.786 Q473.972 267.907 473.972 277.682 Q473.972 287.431 470.533 292.578 Q467.119 297.698 460.628 297.698 Q454.137 297.698 450.698 292.578 Q447.284 287.431 447.284 277.682 Q447.284 267.907 450.698 262.786 Q454.137 257.64 460.628 257.64 Z" fill="#000000" fill-rule="nonzero" fill-opacity="1"></path><path clip-path="url(#clip550)" d="M159.28 1076.52 L159.28 1070.09 L203.49 1070.09 Q212.084 1070.09 215.967 1073.36 Q219.85 1076.61 219.85 1083.84 L219.85 1086.29 L214.439 1086.29 L214.439 1084.28 Q214.439 1080.02 212.052 1078.27 Q209.665 1076.52 203.49 1076.52 L159.28 1076.52 Z" fill="#000000" fill-rule="nonzero" fill-opacity="1"></path><path clip-path="url(#clip550)" d="M217.622 1030.46 L222.174 1030.46 L222.174 1064.32 L217.622 1064.32 L217.622 1030.46 Z" fill="#000000" fill-rule="nonzero" fill-opacity="1"></path><path clip-path="url(#clip550)" d="M175.258 1011.14 Q175.258 1015.85 178.95 1018.59 Q182.611 1021.32 189.008 1021.32 Q195.406 1021.32 199.098 1018.62 Q202.758 1015.88 202.758 1011.14 Q202.758 1006.46 199.066 1003.72 Q195.374 1000.99 189.008 1000.99 Q182.674 1000.99 178.982 1003.72 Q175.258 1006.46 175.258 1011.14 M170.293 1011.14 Q170.293 1003.5 175.258 999.14 Q180.224 994.78 189.008 994.78 Q197.761 994.78 202.758 999.14 Q207.723 1003.5 207.723 1011.14 Q207.723 1018.81 202.758 1023.17 Q197.761 1027.5 189.008 1027.5 Q180.224 1027.5 175.258 1023.17 Q170.293 1018.81 170.293 1011.14 Z" fill="#000000" fill-rule="nonzero" fill-opacity="1"></path><path clip-path="url(#clip550)" d="M157.275 985.072 L157.275 979.215 L206.8 979.215 L206.8 985.072 L157.275 985.072 Z" fill="#000000" fill-rule="nonzero" fill-opacity="1"></path><path clip-path="url(#clip550)" d="M176.563 943.504 L157.275 943.504 L157.275 937.647 L206.8 937.647 L206.8 943.504 L201.453 943.504 Q204.636 945.35 206.196 948.183 Q207.723 950.983 207.723 954.93 Q207.723 961.391 202.567 965.465 Q197.411 969.508 189.008 969.508 Q180.605 969.508 175.449 965.465 Q170.293 961.391 170.293 954.93 Q170.293 950.983 171.853 948.183 Q173.38 945.35 176.563 943.504 M189.008 963.46 Q195.469 963.46 199.162 960.818 Q202.822 958.145 202.822 953.498 Q202.822 948.851 199.162 946.177 Q195.469 943.504 189.008 943.504 Q182.547 943.504 178.887 946.177 Q175.195 948.851 175.195 953.498 Q175.195 958.145 178.887 960.818 Q182.547 963.46 189.008 963.46 Z" fill="#000000" fill-rule="nonzero" fill-opacity="1"></path><path clip-path="url(#clip550)" d="M159.28 915.176 L159.28 909.766 L212.848 926.316 L212.848 931.727 L159.28 915.176 Z" fill="#000000" fill-rule="nonzero" fill-opacity="1"></path><path clip-path="url(#clip550)" d="M159.28 903.368 L159.28 896.939 L203.49 896.939 Q212.084 896.939 215.967 900.217 Q219.85 903.463 219.85 910.689 L219.85 913.139 L214.439 913.139 L214.439 911.134 Q214.439 906.869 212.052 905.119 Q209.665 903.368 203.49 903.368 L159.28 903.368 Z" fill="#000000" fill-rule="nonzero" fill-opacity="1"></path><path clip-path="url(#clip550)" d="M217.622 857.312 L222.174 857.312 L222.174 891.178 L217.622 891.178 L217.622 857.312 Z" fill="#000000" fill-rule="nonzero" fill-opacity="1"></path><path clip-path="url(#clip550)" d="M171.152 851.806 L171.152 845.949 L206.8 845.949 L206.8 851.806 L171.152 851.806 M157.275 851.806 L157.275 845.949 L164.691 845.949 L164.691 851.806 L157.275 851.806 Z" fill="#000000" fill-rule="nonzero" fill-opacity="1"></path><path clip-path="url(#clip550)" d="M185.284 804.063 L206.8 804.063 L206.8 809.919 L185.475 809.919 Q180.415 809.919 177.9 811.893 Q175.386 813.866 175.386 817.813 Q175.386 822.555 178.409 825.293 Q181.433 828.03 186.653 828.03 L206.8 828.03 L206.8 833.918 L171.152 833.918 L171.152 828.03 L176.691 828.03 Q173.476 825.929 171.884 823.096 Q170.293 820.232 170.293 816.508 Q170.293 810.365 174.112 807.214 Q177.9 804.063 185.284 804.063 Z" fill="#000000" fill-rule="nonzero" fill-opacity="1"></path><path clip-path="url(#clip550)" d="M171.152 792.382 L171.152 786.525 L206.8 786.525 L206.8 792.382 L171.152 792.382 M157.275 792.382 L157.275 786.525 L164.691 786.525 L164.691 792.382 L157.275 792.382 Z" fill="#000000" fill-rule="nonzero" fill-opacity="1"></path><path clip-path="url(#clip550)" d="M1077.38 35.9153 Q1080.17 30.8922 1084.06 28.5022 Q1087.95 26.1121 1093.22 26.1121 Q1100.3 26.1121 1104.15 31.0947 Q1108 36.0368 1108 45.1919 L1108 72.576 L1100.51 72.576 L1100.51 45.4349 Q1100.51 38.913 1098.2 35.7533 Q1095.89 32.5936 1091.15 32.5936 Q1085.36 32.5936 1081.99 36.4419 Q1078.63 40.2903 1078.63 46.9338 L1078.63 72.576 L1071.14 72.576 L1071.14 45.4349 Q1071.14 38.8725 1068.83 35.7533 Q1066.52 32.5936 1061.7 32.5936 Q1055.99 32.5936 1052.63 36.4824 Q1049.26 40.3308 1049.26 46.9338 L1049.26 72.576 L1041.77 72.576 L1041.77 27.2059 L1049.26 27.2059 L1049.26 34.2544 Q1051.82 30.082 1055.38 28.0971 Q1058.94 26.1121 1063.85 26.1121 Q1068.79 26.1121 1072.23 28.6237 Q1075.72 31.1352 1077.38 35.9153 Z" fill="#000000" fill-rule="nonzero" fill-opacity="1"></path><path clip-path="url(#clip550)" d="M1122.87 27.2059 L1130.32 27.2059 L1130.32 72.576 L1122.87 72.576 L1122.87 27.2059 M1122.87 9.54393 L1130.32 9.54393 L1130.32 18.9825 L1122.87 18.9825 L1122.87 9.54393 Z" fill="#000000" fill-rule="nonzero" fill-opacity="1"></path><path clip-path="url(#clip550)" d="M1174.84 28.5427 L1174.84 35.5912 Q1171.68 33.9709 1168.28 33.1607 Q1164.88 32.3505 1161.23 32.3505 Q1155.68 32.3505 1152.89 34.0519 Q1150.13 35.7533 1150.13 39.156 Q1150.13 41.7486 1152.12 43.2475 Q1154.1 44.7058 1160.1 46.0426 L1162.65 46.6097 Q1170.59 48.3111 1173.91 51.4303 Q1177.27 54.509 1177.27 60.0587 Q1177.27 66.3781 1172.25 70.0644 Q1167.27 73.7508 1158.52 73.7508 Q1154.87 73.7508 1150.9 73.0216 Q1146.97 72.3329 1142.6 70.9151 L1142.6 63.2184 Q1146.73 65.3654 1150.74 66.4591 Q1154.75 67.5124 1158.68 67.5124 Q1163.94 67.5124 1166.78 65.73 Q1169.62 63.9071 1169.62 60.6258 Q1169.62 57.5877 1167.55 55.9673 Q1165.52 54.3469 1158.6 52.8481 L1156 52.2405 Q1149.08 50.7821 1146 47.7845 Q1142.92 44.7463 1142.92 39.4801 Q1142.92 33.0797 1147.46 29.5959 Q1151.99 26.1121 1160.34 26.1121 Q1164.47 26.1121 1168.12 26.7198 Q1171.76 27.3274 1174.84 28.5427 Z" fill="#000000" fill-rule="nonzero" fill-opacity="1"></path><path clip-path="url(#clip550)" d="M1212.11 9.54393 L1212.11 15.7418 L1204.98 15.7418 Q1200.97 15.7418 1199.39 17.3622 Q1197.85 18.9825 1197.85 23.1955 L1197.85 27.2059 L1210.12 27.2059 L1210.12 32.9987 L1197.85 32.9987 L1197.85 72.576 L1190.36 72.576 L1190.36 32.9987 L1183.23 32.9987 L1183.23 27.2059 L1190.36 27.2059 L1190.36 24.0462 Q1190.36 16.471 1193.88 13.0277 Q1197.4 9.54393 1205.06 9.54393 L1212.11 9.54393 Z" fill="#000000" fill-rule="nonzero" fill-opacity="1"></path><path clip-path="url(#clip550)" d="M1218.35 27.2059 L1225.8 27.2059 L1225.8 72.576 L1218.35 72.576 L1218.35 27.2059 M1218.35 9.54393 L1225.8 9.54393 L1225.8 18.9825 L1218.35 18.9825 L1218.35 9.54393 Z" fill="#000000" fill-rule="nonzero" fill-opacity="1"></path><path clip-path="url(#clip550)" d="M1248.77 14.324 L1248.77 27.2059 L1264.12 27.2059 L1264.12 32.9987 L1248.77 32.9987 L1248.77 57.6282 Q1248.77 63.1779 1250.27 64.7578 Q1251.81 66.3376 1256.47 66.3376 L1264.12 66.3376 L1264.12 72.576 L1256.47 72.576 Q1247.84 72.576 1244.56 69.3758 Q1241.28 66.1351 1241.28 57.6282 L1241.28 32.9987 L1235.81 32.9987 L1235.81 27.2059 L1241.28 27.2059 L1241.28 14.324 L1248.77 14.324 Z" fill="#000000" fill-rule="nonzero" fill-opacity="1"></path><polyline clip-path="url(#clip552)" style="stroke:#009af9; stroke-linecap:round; stroke-linejoin:round; stroke-width:14; stroke-opacity:1; fill:none" points="540.141,302.012 621.848,430.053 703.555,705.451 785.263,855.943 866.97,897.918 948.678,1034.54 1030.38,1154.8 1112.09,1405.07 1193.8,1540.38 1275.51,1567.45 1357.21,1570.8 1438.92,1570.8 1520.63,1570.8 1602.34,1570.8 1684.04,1570.8 1765.75,1570.8 "></polyline>
<circle clip-path="url(#clip552)" cx="540.141" cy="302.012" r="14.4" fill="#009af9" fill-rule="evenodd" fill-opacity="1" stroke="#000000" stroke-opacity="1" stroke-width="3.92"></circle>
<circle clip-path="url(#clip552)" cx="621.848" cy="430.053" r="14.4" fill="#009af9" fill-rule="evenodd" fill-opacity="1" stroke="#000000" stroke-opacity="1" stroke-width="3.92"></circle>
<circle clip-path="url(#clip552)" cx="703.555" cy="705.451" r="14.4" fill="#009af9" fill-rule="evenodd" fill-opacity="1" stroke="#000000" stroke-opacity="1" stroke-width="3.92"></circle>
<circle clip-path="url(#clip552)" cx="785.263" cy="855.943" r="14.4" fill="#009af9" fill-rule="evenodd" fill-opacity="1" stroke="#000000" stroke-opacity="1" stroke-width="3.92"></circle>
<circle clip-path="url(#clip552)" cx="866.97" cy="897.918" r="14.4" fill="#009af9" fill-rule="evenodd" fill-opacity="1" stroke="#000000" stroke-opacity="1" stroke-width="3.92"></circle>
<circle clip-path="url(#clip552)" cx="948.678" cy="1034.54" r="14.4" fill="#009af9" fill-rule="evenodd" fill-opacity="1" stroke="#000000" stroke-opacity="1" stroke-width="3.92"></circle>
<circle clip-path="url(#clip552)" cx="1030.38" cy="1154.8" r="14.4" fill="#009af9" fill-rule="evenodd" fill-opacity="1" stroke="#000000" stroke-opacity="1" stroke-width="3.92"></circle>
<circle clip-path="url(#clip552)" cx="1112.09" cy="1405.07" r="14.4" fill="#009af9" fill-rule="evenodd" fill-opacity="1" stroke="#000000" stroke-opacity="1" stroke-width="3.92"></circle>
<circle clip-path="url(#clip552)" cx="1193.8" cy="1540.38" r="14.4" fill="#009af9" fill-rule="evenodd" fill-opacity="1" stroke="#000000" stroke-opacity="1" stroke-width="3.92"></circle>
<circle clip-path="url(#clip552)" cx="1275.51" cy="1567.45" r="14.4" fill="#009af9" fill-rule="evenodd" fill-opacity="1" stroke="#000000" stroke-opacity="1" stroke-width="3.92"></circle>
<circle clip-path="url(#clip552)" cx="1357.21" cy="1570.8" r="14.4" fill="#009af9" fill-rule="evenodd" fill-opacity="1" stroke="#000000" stroke-opacity="1" stroke-width="3.92"></circle>
<circle clip-path="url(#clip552)" cx="1438.92" cy="1570.8" r="14.4" fill="#009af9" fill-rule="evenodd" fill-opacity="1" stroke="#000000" stroke-opacity="1" stroke-width="3.92"></circle>
<circle clip-path="url(#clip552)" cx="1520.63" cy="1570.8" r="14.4" fill="#009af9" fill-rule="evenodd" fill-opacity="1" stroke="#000000" stroke-opacity="1" stroke-width="3.92"></circle>
<circle clip-path="url(#clip552)" cx="1602.34" cy="1570.8" r="14.4" fill="#009af9" fill-rule="evenodd" fill-opacity="1" stroke="#000000" stroke-opacity="1" stroke-width="3.92"></circle>
<circle clip-path="url(#clip552)" cx="1684.04" cy="1570.8" r="14.4" fill="#009af9" fill-rule="evenodd" fill-opacity="1" stroke="#000000" stroke-opacity="1" stroke-width="3.92"></circle>
<circle clip-path="url(#clip552)" cx="1765.75" cy="1570.8" r="14.4" fill="#009af9" fill-rule="evenodd" fill-opacity="1" stroke="#000000" stroke-opacity="1" stroke-width="3.92"></circle>
</svg>