<svg xmlns="http://www.w3.org/2000/svg" xmlns:xlink="http://www.w3.org/1999/xlink" width="490" height="490" viewBox="0 0 1960 1960">
<defs>
  <clipPath id="clip740">
    <rect x="0" y="0" width="1960" height="1960"></rect>
  </clipPath>
</defs>
<path clip-path="url(#clip740)" d="M0 1960 L1960 1960 L1960 0 L0 0  Z" fill="#ffffff" fill-rule="evenodd" fill-opacity="1"></path>
<defs>
  <clipPath id="clip741">
    <rect x="392" y="196" width="1373" height="1373"></rect>
  </clipPath>
</defs>
<path clip-path="url(#clip740)" d="M470.788 1608.86 L1802.52 1608.86 L1802.52 263.948 L470.788 263.948  Z" fill="#ffffff" fill-rule="evenodd" fill-opacity="1"></path>
<defs>
  <clipPath id="clip742">
    <rect x="470" y="263" width="1333" height="1346"></rect>
  </clipPath>
</defs>
<polyline clip-path="url(#clip742)" style="stroke:#000000; stroke-linecap:round; stroke-linejoin:round; stroke-width:2; stroke-opacity:0.1; fill:none" points="508.478,1608.86 508.478,263.948 "></polyline>
<polyline clip-path="url(#clip742)" style="stroke:#000000; stroke-linecap:round; stroke-linejoin:round; stroke-width:2; stroke-opacity:0.1; fill:none" points="927.262,1608.86 927.262,263.948 "></polyline>
<polyline clip-path="url(#clip742)" style="stroke:#000000; stroke-linecap:round; stroke-linejoin:round; stroke-width:2; stroke-opacity:0.1; fill:none" points="1346.05,1608.86 1346.05,263.948 "></polyline>
<polyline clip-path="url(#clip742)" style="stroke:#000000; stroke-linecap:round; stroke-linejoin:round; stroke-width:2; stroke-opacity:0.1; fill:none" points="1764.83,1608.86 1764.83,263.948 "></polyline>
<polyline clip-path="url(#clip740)" style="stroke:#000000; stroke-linecap:round; stroke-linejoin:round; stroke-width:4; stroke-opacity:1; fill:none" points="470.788,1608.86 1802.52,1608.86 "></polyline>
<polyline clip-path="url(#clip740)" style="stroke:#000000; stroke-linecap:round; stroke-linejoin:round; stroke-width:4; stroke-opacity:1; fill:none" points="470.788,263.948 1802.52,263.948 "></polyline>
<polyline clip-path="url(#clip740)" style="stroke:#000000; stroke-linecap:round; stroke-linejoin:round; stroke-width:4; stroke-opacity:1; fill:none" points="508.478,1608.86 508.478,1589.97 "></polyline>
<polyline clip-path="url(#clip740)" style="stroke:#000000; stroke-linecap:round; stroke-linejoin:round; stroke-width:4; stroke-opacity:1; fill:none" points="927.262,1608.86 927.262,1589.97 "></polyline>
<polyline clip-path="url(#clip740)" style="stroke:#000000; stroke-linecap:round; stroke-linejoin:round; stroke-width:4; stroke-opacity:1; fill:none" points="1346.05,1608.86 1346.05,1589.97 "></polyline>
<polyline clip-path="url(#clip740)" style="stroke:#000000; stroke-linecap:round; stroke-linejoin:round; stroke-width:4; stroke-opacity:1; fill:none" points="1764.83,1608.86 1764.83,1589.97 "></polyline>
<path clip-path="url(#clip740)" d="M508.478 1640.66 Q503.513 1640.66 500.999 1645.56 Q498.516 1650.43 498.516 1660.23 Q498.516 1670 500.999 1674.9 Q503.513 1679.77 508.478 1679.77 Q513.475 1679.77 515.958 1674.9 Q518.472 1670 518.472 1660.23 Q518.472 1650.43 515.958 1645.56 Q513.475 1640.66 508.478 1640.66 M508.478 1635.56 Q516.467 1635.56 520.669 1641.9 Q524.902 1648.2 524.902 1660.23 Q524.902 1672.23 520.669 1678.56 Q516.467 1684.87 508.478 1684.87 Q500.489 1684.87 496.256 1678.56 Q492.055 1672.23 492.055 1660.23 Q492.055 1648.2 496.256 1641.9 Q500.489 1635.56 508.478 1635.56 Z" fill="#000000" fill-rule="nonzero" fill-opacity="1"></path><path clip-path="url(#clip740)" d="M892.457 1678.53 L902.961 1678.53 L902.961 1642.28 L891.534 1644.57 L891.534 1638.72 L902.897 1636.42 L909.327 1636.42 L909.327 1678.53 L919.83 1678.53 L919.83 1683.94 L892.457 1683.94 L892.457 1678.53 Z" fill="#000000" fill-rule="nonzero" fill-opacity="1"></path><path clip-path="url(#clip740)" d="M946.566 1640.66 Q941.601 1640.66 939.086 1645.56 Q936.604 1650.43 936.604 1660.23 Q936.604 1670 939.086 1674.9 Q941.601 1679.77 946.566 1679.77 Q951.563 1679.77 954.046 1674.9 Q956.56 1670 956.56 1660.23 Q956.56 1650.43 954.046 1645.56 Q951.563 1640.66 946.566 1640.66 M946.566 1635.56 Q954.555 1635.56 958.756 1641.9 Q962.989 1648.2 962.989 1660.23 Q962.989 1672.23 958.756 1678.56 Q954.555 1684.87 946.566 1684.87 Q938.577 1684.87 934.344 1678.56 Q930.142 1672.23 930.142 1660.23 Q930.142 1648.2 934.344 1641.9 Q938.577 1635.56 946.566 1635.56 Z" fill="#000000" fill-rule="nonzero" fill-opacity="1"></path><path clip-path="url(#clip740)" d="M1316.86 1678.53 L1339.3 1678.53 L1339.3 1683.94 L1309.12 1683.94 L1309.12 1678.53 Q1312.78 1674.75 1319.09 1668.38 Q1325.42 1661.98 1327.04 1660.14 Q1330.13 1656.67 1331.34 1654.28 Q1332.58 1651.86 1332.58 1649.54 Q1332.58 1645.75 1329.91 1643.36 Q1327.27 1640.98 1323 1640.98 Q1319.98 1640.98 1316.6 1642.03 Q1313.26 1643.08 1309.44 1645.21 L1309.44 1638.72 Q1313.33 1637.16 1316.7 1636.36 Q1320.07 1635.56 1322.87 1635.56 Q1330.26 1635.56 1334.65 1639.26 Q1339.04 1642.95 1339.04 1649.12 Q1339.04 1652.05 1337.93 1654.69 Q1336.85 1657.3 1333.95 1660.87 Q1333.15 1661.79 1328.89 1666.22 Q1324.62 1670.61 1316.86 1678.53 Z" fill="#000000" fill-rule="nonzero" fill-opacity="1"></path><path clip-path="url(#clip740)" d="M1366.54 1640.66 Q1361.58 1640.66 1359.06 1645.56 Q1356.58 1650.43 1356.58 1660.23 Q1356.58 1670 1359.06 1674.9 Q1361.58 1679.77 1366.54 1679.77 Q1371.54 1679.77 1374.02 1674.9 Q1376.54 1670 1376.54 1660.23 Q1376.54 1650.43 1374.02 1645.56 Q1371.54 1640.66 1366.54 1640.66 M1366.54 1635.56 Q1374.53 1635.56 1378.73 1641.9 Q1382.97 1648.2 1382.97 1660.23 Q1382.97 1672.23 1378.73 1678.56 Q1374.53 1684.87 1366.54 1684.87 Q1358.55 1684.87 1354.32 1678.56 Q1350.12 1672.23 1350.12 1660.23 Q1350.12 1648.2 1354.32 1641.9 Q1358.55 1635.56 1366.54 1635.56 Z" fill="#000000" fill-rule="nonzero" fill-opacity="1"></path><path clip-path="url(#clip740)" d="M1749.49 1658.32 Q1754.1 1659.31 1756.68 1662.43 Q1759.29 1665.55 1759.29 1670.13 Q1759.29 1677.16 1754.45 1681.02 Q1749.62 1684.87 1740.7 1684.87 Q1737.71 1684.87 1734.53 1684.26 Q1731.38 1683.69 1728 1682.51 L1728 1676.3 Q1730.68 1677.86 1733.86 1678.66 Q1737.04 1679.46 1740.51 1679.46 Q1746.56 1679.46 1749.71 1677.07 Q1752.89 1674.68 1752.89 1670.13 Q1752.89 1665.93 1749.93 1663.57 Q1747.01 1661.19 1741.75 1661.19 L1736.22 1661.19 L1736.22 1655.9 L1742.01 1655.9 Q1746.75 1655.9 1749.27 1654.02 Q1751.78 1652.12 1751.78 1648.55 Q1751.78 1644.89 1749.17 1642.95 Q1746.59 1640.98 1741.75 1640.98 Q1739.11 1640.98 1736.09 1641.55 Q1733.06 1642.12 1729.44 1643.33 L1729.44 1637.6 Q1733.1 1636.58 1736.28 1636.07 Q1739.49 1635.56 1742.33 1635.56 Q1749.65 1635.56 1753.91 1638.91 Q1758.18 1642.22 1758.18 1647.88 Q1758.18 1651.83 1755.92 1654.57 Q1753.66 1657.27 1749.49 1658.32 Z" fill="#000000" fill-rule="nonzero" fill-opacity="1"></path><path clip-path="url(#clip740)" d="M1785.23 1640.66 Q1780.27 1640.66 1777.75 1645.56 Q1775.27 1650.43 1775.27 1660.23 Q1775.27 1670 1777.75 1674.9 Q1780.27 1679.77 1785.23 1679.77 Q1790.23 1679.77 1792.71 1674.9 Q1795.23 1670 1795.23 1660.23 Q1795.23 1650.43 1792.71 1645.56 Q1790.23 1640.66 1785.23 1640.66 M1785.23 1635.56 Q1793.22 1635.56 1797.42 1641.9 Q1801.65 1648.2 1801.65 1660.23 Q1801.65 1672.23 1797.42 1678.56 Q1793.22 1684.87 1785.23 1684.87 Q1777.24 1684.87 1773.01 1678.56 Q1768.81 1672.23 1768.81 1660.23 Q1768.81 1648.2 1773.01 1641.9 Q1777.24 1635.56 1785.23 1635.56 Z" fill="#000000" fill-rule="nonzero" fill-opacity="1"></path><path clip-path="url(#clip740)" d="M986.216 1719.05 L992.646 1719.05 L992.646 1766.57 L986.216 1766.57 L986.216 1719.05 Z" fill="#000000" fill-rule="nonzero" fill-opacity="1"></path><path clip-path="url(#clip740)" d="M1010.98 1720.8 L1010.98 1730.92 L1023.04 1730.92 L1023.04 1735.47 L1010.98 1735.47 L1010.98 1754.82 Q1010.98 1759.18 1012.16 1760.42 Q1013.37 1761.67 1017.03 1761.67 L1023.04 1761.67 L1023.04 1766.57 L1017.03 1766.57 Q1010.25 1766.57 1007.67 1764.05 Q1005.09 1761.51 1005.09 1754.82 L1005.09 1735.47 L1000.79 1735.47 L1000.79 1730.92 L1005.09 1730.92 L1005.09 1720.8 L1010.98 1720.8 Z" fill="#000000" fill-rule="nonzero" fill-opacity="1"></path><path clip-path="url(#clip740)" d="M1061.24 1747.28 L1061.24 1750.14 L1034.31 1750.14 Q1034.69 1756.19 1037.94 1759.37 Q1041.22 1762.53 1047.04 1762.53 Q1050.41 1762.53 1053.57 1761.7 Q1056.75 1760.87 1059.87 1759.22 L1059.87 1764.75 Q1056.72 1766.09 1053.41 1766.79 Q1050.1 1767.49 1046.69 1767.49 Q1038.16 1767.49 1033.16 1762.53 Q1028.2 1757.56 1028.2 1749.09 Q1028.2 1740.34 1032.91 1735.22 Q1037.65 1730.06 1045.67 1730.06 Q1052.87 1730.06 1057.03 1734.71 Q1061.24 1739.32 1061.24 1747.28 M1055.38 1745.56 Q1055.32 1740.75 1052.67 1737.89 Q1050.06 1735.03 1045.74 1735.03 Q1040.83 1735.03 1037.87 1737.79 Q1034.95 1740.56 1034.5 1745.59 L1055.38 1745.56 Z" fill="#000000" fill-rule="nonzero" fill-opacity="1"></path><path clip-path="url(#clip740)" d="M1091.5 1736.39 Q1090.52 1735.82 1089.34 1735.57 Q1088.19 1735.28 1086.79 1735.28 Q1081.83 1735.28 1079.16 1738.53 Q1076.51 1741.74 1076.51 1747.79 L1076.51 1766.57 L1070.63 1766.57 L1070.63 1730.92 L1076.51 1730.92 L1076.51 1736.46 Q1078.36 1733.21 1081.32 1731.65 Q1084.28 1730.06 1088.51 1730.06 Q1089.12 1730.06 1089.85 1730.16 Q1090.58 1730.22 1091.47 1730.38 L1091.5 1736.39 Z" fill="#000000" fill-rule="nonzero" fill-opacity="1"></path><path clip-path="url(#clip740)" d="M1113.85 1748.65 Q1106.75 1748.65 1104.01 1750.27 Q1101.28 1751.89 1101.28 1755.81 Q1101.28 1758.93 1103.31 1760.77 Q1105.38 1762.59 1108.92 1762.59 Q1113.78 1762.59 1116.71 1759.15 Q1119.67 1755.68 1119.67 1749.95 L1119.67 1748.65 L1113.85 1748.65 M1125.53 1746.23 L1125.53 1766.57 L1119.67 1766.57 L1119.67 1761.16 Q1117.67 1764.4 1114.68 1765.96 Q1111.68 1767.49 1107.36 1767.49 Q1101.88 1767.49 1098.63 1764.44 Q1095.42 1761.35 1095.42 1756.19 Q1095.42 1750.18 1099.43 1747.12 Q1103.47 1744.06 1111.46 1744.06 L1119.67 1744.06 L1119.67 1743.49 Q1119.67 1739.45 1117 1737.25 Q1114.36 1735.03 1109.55 1735.03 Q1106.5 1735.03 1103.6 1735.76 Q1100.7 1736.49 1098.03 1737.95 L1098.03 1732.54 Q1101.24 1731.3 1104.27 1730.7 Q1107.29 1730.06 1110.16 1730.06 Q1117.89 1730.06 1121.71 1734.07 Q1125.53 1738.08 1125.53 1746.23 Z" fill="#000000" fill-rule="nonzero" fill-opacity="1"></path><path clip-path="url(#clip740)" d="M1143.39 1720.8 L1143.39 1730.92 L1155.45 1730.92 L1155.45 1735.47 L1143.39 1735.47 L1143.39 1754.82 Q1143.39 1759.18 1144.56 1760.42 Q1145.77 1761.67 1149.43 1761.67 L1155.45 1761.67 L1155.45 1766.57 L1149.43 1766.57 Q1142.65 1766.57 1140.08 1764.05 Q1137.5 1761.51 1137.5 1754.82 L1137.5 1735.47 L1133.2 1735.47 L1133.2 1730.92 L1137.5 1730.92 L1137.5 1720.8 L1143.39 1720.8 Z" fill="#000000" fill-rule="nonzero" fill-opacity="1"></path><path clip-path="url(#clip740)" d="M1163.15 1730.92 L1169.01 1730.92 L1169.01 1766.57 L1163.15 1766.57 L1163.15 1730.92 M1163.15 1717.04 L1169.01 1717.04 L1169.01 1724.46 L1163.15 1724.46 L1163.15 1717.04 Z" fill="#000000" fill-rule="nonzero" fill-opacity="1"></path><path clip-path="url(#clip740)" d="M1195.08 1735.03 Q1190.36 1735.03 1187.63 1738.72 Q1184.89 1742.38 1184.89 1748.78 Q1184.89 1755.17 1187.6 1758.87 Q1190.33 1762.53 1195.08 1762.53 Q1199.75 1762.53 1202.49 1758.83 Q1205.23 1755.14 1205.23 1748.78 Q1205.23 1742.44 1202.49 1738.75 Q1199.75 1735.03 1195.08 1735.03 M1195.08 1730.06 Q1202.71 1730.06 1207.07 1735.03 Q1211.43 1739.99 1211.43 1748.78 Q1211.43 1757.53 1207.07 1762.53 Q1202.71 1767.49 1195.08 1767.49 Q1187.4 1767.49 1183.04 1762.53 Q1178.72 1757.53 1178.72 1748.78 Q1178.72 1739.99 1183.04 1735.03 Q1187.4 1730.06 1195.08 1730.06 Z" fill="#000000" fill-rule="nonzero" fill-opacity="1"></path><path clip-path="url(#clip740)" d="M1250.77 1745.05 L1250.77 1766.57 L1244.92 1766.57 L1244.92 1745.24 Q1244.92 1740.18 1242.95 1737.67 Q1240.97 1735.15 1237.03 1735.15 Q1232.28 1735.15 1229.55 1738.18 Q1226.81 1741.2 1226.81 1746.42 L1226.81 1766.57 L1220.92 1766.57 L1220.92 1730.92 L1226.81 1730.92 L1226.81 1736.46 Q1228.91 1733.24 1231.74 1731.65 Q1234.61 1730.06 1238.33 1730.06 Q1244.47 1730.06 1247.62 1733.88 Q1250.77 1737.67 1250.77 1745.05 Z" fill="#000000" fill-rule="nonzero" fill-opacity="1"></path><path clip-path="url(#clip740)" d="M1285.18 1731.97 L1285.18 1737.51 Q1282.7 1736.24 1280.03 1735.6 Q1277.35 1734.96 1274.49 1734.96 Q1270.13 1734.96 1267.93 1736.3 Q1265.77 1737.64 1265.77 1740.31 Q1265.77 1742.35 1267.33 1743.52 Q1268.89 1744.67 1273.6 1745.72 L1275.6 1746.17 Q1281.84 1747.5 1284.45 1749.95 Q1287.09 1752.37 1287.09 1756.73 Q1287.09 1761.7 1283.14 1764.59 Q1279.23 1767.49 1272.35 1767.49 Q1269.49 1767.49 1266.37 1766.92 Q1263.28 1766.38 1259.85 1765.26 L1259.85 1759.22 Q1263.09 1760.9 1266.24 1761.76 Q1269.39 1762.59 1272.48 1762.59 Q1276.62 1762.59 1278.85 1761.19 Q1281.08 1759.76 1281.08 1757.18 Q1281.08 1754.79 1279.45 1753.52 Q1277.86 1752.24 1272.42 1751.07 L1270.38 1750.59 Q1264.94 1749.44 1262.52 1747.09 Q1260.1 1744.7 1260.1 1740.56 Q1260.1 1735.53 1263.67 1732.8 Q1267.23 1730.06 1273.79 1730.06 Q1277.03 1730.06 1279.9 1730.54 Q1282.76 1731.02 1285.18 1731.97 Z" fill="#000000" fill-rule="nonzero" fill-opacity="1"></path><polyline clip-path="url(#clip742)" style="stroke:#000000; stroke-linecap:round; stroke-linejoin:round; stroke-width:2; stroke-opacity:0.1; fill:none" points="470.788,1249.18 1802.52,1249.18 "></polyline>
<polyline clip-path="url(#clip742)" style="stroke:#000000; stroke-linecap:round; stroke-linejoin:round; stroke-width:2; stroke-opacity:0.1; fill:none" points="470.788,775.595 1802.52,775.595 "></polyline>
<polyline clip-path="url(#clip742)" style="stroke:#000000; stroke-linecap:round; stroke-linejoin:round; stroke-width:2; stroke-opacity:0.1; fill:none" points="470.788,302.012 1802.52,302.012 "></polyline>
<polyline clip-path="url(#clip740)" style="stroke:#000000; stroke-linecap:round; stroke-linejoin:round; stroke-width:4; stroke-opacity:1; fill:none" points="470.788,1608.86 470.788,263.948 "></polyline>
<polyline clip-path="url(#clip740)" style="stroke:#000000; stroke-linecap:round; stroke-linejoin:round; stroke-width:4; stroke-opacity:1; fill:none" points="1802.52,1608.86 1802.52,263.948 "></polyline>
<polyline clip-path="url(#clip740)" style="stroke:#000000; stroke-linecap:round; stroke-linejoin:round; stroke-width:4; stroke-opacity:1; fill:none" points="470.788,1249.18 489.685,1249.18 "></polyline>
<polyline clip-path="url(#clip740)" style="stroke:#000000; stroke-linecap:round; stroke-linejoin:round; stroke-width:4; stroke-opacity:1; fill:none" points="470.788,775.595 489.685,775.595 "></polyline>
<polyline clip-path="url(#clip740)" style="stroke:#000000; stroke-linecap:round; stroke-linejoin:round; stroke-width:4; stroke-opacity:1; fill:none" points="470.788,302.012 489.685,302.012 "></polyline>
<path clip-path="url(#clip740)" d="M251.379 1276.39 L261.883 1276.39 L261.883 1240.14 L250.456 1242.43 L250.456 1236.58 L261.819 1234.28 L268.249 1234.28 L268.249 1276.39 L278.752 1276.39 L278.752 1281.8 L251.379 1281.8 L251.379 1276.39 Z" fill="#000000" fill-rule="nonzero" fill-opacity="1"></path><path clip-path="url(#clip740)" d="M305.488 1238.52 Q300.523 1238.52 298.008 1243.42 Q295.526 1248.29 295.526 1258.09 Q295.526 1267.86 298.008 1272.76 Q300.523 1277.63 305.488 1277.63 Q310.485 1277.63 312.968 1272.76 Q315.482 1267.86 315.482 1258.09 Q315.482 1248.29 312.968 1243.42 Q310.485 1238.52 305.488 1238.52 M305.488 1233.42 Q313.477 1233.42 317.678 1239.76 Q321.911 1246.06 321.911 1258.09 Q321.911 1270.09 317.678 1276.42 Q313.477 1282.73 305.488 1282.73 Q297.499 1282.73 293.266 1276.42 Q289.064 1270.09 289.064 1258.09 Q289.064 1246.06 293.266 1239.76 Q297.499 1233.42 305.488 1233.42 Z" fill="#000000" fill-rule="nonzero" fill-opacity="1"></path><path clip-path="url(#clip740)" d="M321.911 1225.31 L355.065 1225.31 L355.065 1229.71 L321.911 1229.71 L321.911 1225.31 Z" fill="#000000" fill-rule="nonzero" fill-opacity="1"></path><path clip-path="url(#clip740)" d="M367.245 1239.72 L375.779 1239.72 L375.779 1210.26 L366.495 1212.13 L366.495 1207.37 L375.728 1205.5 L380.951 1205.5 L380.951 1239.72 L389.485 1239.72 L389.485 1244.11 L367.245 1244.11 L367.245 1239.72 Z" fill="#000000" fill-rule="nonzero" fill-opacity="1"></path><path clip-path="url(#clip740)" d="M400.037 1237.55 L405.493 1237.55 L405.493 1244.11 L400.037 1244.11 L400.037 1237.55 Z" fill="#000000" fill-rule="nonzero" fill-opacity="1"></path><path clip-path="url(#clip740)" d="M428.044 1208.94 Q424.009 1208.94 421.966 1212.93 Q419.949 1216.88 419.949 1224.85 Q419.949 1232.79 421.966 1236.77 Q424.009 1240.73 428.044 1240.73 Q432.104 1240.73 434.121 1236.77 Q436.164 1232.79 436.164 1224.85 Q436.164 1216.88 434.121 1212.93 Q432.104 1208.94 428.044 1208.94 M428.044 1204.81 Q434.535 1204.81 437.948 1209.95 Q441.388 1215.07 441.388 1224.85 Q441.388 1234.6 437.948 1239.74 Q434.535 1244.86 428.044 1244.86 Q421.553 1244.86 418.113 1239.74 Q414.7 1234.6 414.7 1224.85 Q414.7 1215.07 418.113 1209.95 Q421.553 1204.81 428.044 1204.81 Z" fill="#000000" fill-rule="nonzero" fill-opacity="1"></path><path clip-path="url(#clip740)" d="M252.491 802.81 L262.995 802.81 L262.995 766.557 L251.568 768.849 L251.568 762.992 L262.931 760.701 L269.361 760.701 L269.361 802.81 L279.864 802.81 L279.864 808.221 L252.491 808.221 L252.491 802.81 Z" fill="#000000" fill-rule="nonzero" fill-opacity="1"></path><path clip-path="url(#clip740)" d="M306.6 764.934 Q301.635 764.934 299.12 769.836 Q296.638 774.705 296.638 784.508 Q296.638 794.28 299.12 799.181 Q301.635 804.051 306.6 804.051 Q311.597 804.051 314.08 799.181 Q316.594 794.28 316.594 784.508 Q316.594 774.705 314.08 769.836 Q311.597 764.934 306.6 764.934 M306.6 759.841 Q314.589 759.841 318.79 766.175 Q323.023 772.477 323.023 784.508 Q323.023 796.508 318.79 802.842 Q314.589 809.144 306.6 809.144 Q298.611 809.144 294.378 802.842 Q290.176 796.508 290.176 784.508 Q290.176 772.477 294.378 766.175 Q298.611 759.841 306.6 759.841 Z" fill="#000000" fill-rule="nonzero" fill-opacity="1"></path><path clip-path="url(#clip740)" d="M323.023 751.731 L356.177 751.731 L356.177 756.127 L323.023 756.127 L323.023 751.731 Z" fill="#000000" fill-rule="nonzero" fill-opacity="1"></path><path clip-path="url(#clip740)" d="M378.624 735.361 Q374.59 735.361 372.547 739.343 Q370.53 743.3 370.53 751.265 Q370.53 759.204 372.547 763.187 Q374.59 767.144 378.624 767.144 Q382.684 767.144 384.701 763.187 Q386.744 759.204 386.744 751.265 Q386.744 743.3 384.701 739.343 Q382.684 735.361 378.624 735.361 M378.624 731.223 Q385.115 731.223 388.529 736.369 Q391.968 741.49 391.968 751.265 Q391.968 761.015 388.529 766.161 Q385.115 771.281 378.624 771.281 Q372.133 771.281 368.693 766.161 Q365.28 761.015 365.28 751.265 Q365.28 741.49 368.693 736.369 Q372.133 731.223 378.624 731.223 Z" fill="#000000" fill-rule="nonzero" fill-opacity="1"></path><path clip-path="url(#clip740)" d="M401.149 763.963 L406.605 763.963 L406.605 770.531 L401.149 770.531 L401.149 763.963 Z" fill="#000000" fill-rule="nonzero" fill-opacity="1"></path><path clip-path="url(#clip740)" d="M418.036 731.921 L438.543 731.921 L438.543 736.318 L422.82 736.318 L422.82 745.783 Q423.958 745.395 425.096 745.214 Q426.233 745.007 427.371 745.007 Q433.836 745.007 437.612 748.55 Q441.388 752.093 441.388 758.144 Q441.388 764.377 437.509 767.842 Q433.63 771.281 426.57 771.281 Q424.139 771.281 421.604 770.868 Q419.096 770.454 416.406 769.626 L416.406 764.377 Q418.734 765.644 421.216 766.264 Q423.699 766.885 426.466 766.885 Q430.94 766.885 433.552 764.532 Q436.164 762.178 436.164 758.144 Q436.164 754.11 433.552 751.757 Q430.94 749.403 426.466 749.403 Q424.371 749.403 422.277 749.869 Q420.208 750.334 418.036 751.317 L418.036 731.921 Z" fill="#000000" fill-rule="nonzero" fill-opacity="1"></path><path clip-path="url(#clip740)" d="M293.636 329.227 L304.139 329.227 L304.139 292.974 L292.713 295.266 L292.713 289.409 L304.076 287.117 L310.505 287.117 L310.505 329.227 L321.008 329.227 L321.008 334.637 L293.636 334.637 L293.636 329.227 Z" fill="#000000" fill-rule="nonzero" fill-opacity="1"></path><path clip-path="url(#clip740)" d="M347.744 291.351 Q342.779 291.351 340.265 296.252 Q337.782 301.122 337.782 310.925 Q337.782 320.697 340.265 325.598 Q342.779 330.468 347.744 330.468 Q352.741 330.468 355.224 325.598 Q357.738 320.697 357.738 310.925 Q357.738 301.122 355.224 296.252 Q352.741 291.351 347.744 291.351 M347.744 286.258 Q355.733 286.258 359.935 292.592 Q364.168 298.894 364.168 310.925 Q364.168 322.925 359.935 329.258 Q355.733 335.56 347.744 335.56 Q339.755 335.56 335.522 329.258 Q331.321 322.925 331.321 310.925 Q331.321 298.894 335.522 292.592 Q339.755 286.258 347.744 286.258 Z" fill="#000000" fill-rule="nonzero" fill-opacity="1"></path><path clip-path="url(#clip740)" d="M377.512 261.778 Q373.478 261.778 371.435 265.76 Q369.418 269.717 369.418 277.682 Q369.418 285.621 371.435 289.604 Q373.478 293.56 377.512 293.56 Q381.572 293.56 383.589 289.604 Q385.632 285.621 385.632 277.682 Q385.632 269.717 383.589 265.76 Q381.572 261.778 377.512 261.778 M377.512 257.64 Q384.003 257.64 387.417 262.786 Q390.856 267.907 390.856 277.682 Q390.856 287.431 387.417 292.578 Q384.003 297.698 377.512 297.698 Q371.021 297.698 367.581 292.578 Q364.168 287.431 364.168 277.682 Q364.168 267.907 367.581 262.786 Q371.021 257.64 377.512 257.64 Z" fill="#000000" fill-rule="nonzero" fill-opacity="1"></path><path clip-path="url(#clip740)" d="M400.037 290.38 L405.493 290.38 L405.493 296.948 L400.037 296.948 L400.037 290.38 Z" fill="#000000" fill-rule="nonzero" fill-opacity="1"></path><path clip-path="url(#clip740)" d="M428.044 261.778 Q424.009 261.778 421.966 265.76 Q419.949 269.717 419.949 277.682 Q419.949 285.621 421.966 289.604 Q424.009 293.56 428.044 293.56 Q432.104 293.56 434.121 289.604 Q436.164 285.621 436.164 277.682 Q436.164 269.717 434.121 265.76 Q432.104 261.778 428.044 261.778 M428.044 257.64 Q434.535 257.64 437.948 262.786 Q441.388 267.907 441.388 277.682 Q441.388 287.431 437.948 292.578 Q434.535 297.698 428.044 297.698 Q421.553 297.698 418.113 292.578 Q414.7 287.431 414.7 277.682 Q414.7 267.907 418.113 262.786 Q421.553 257.64 428.044 257.64 Z" fill="#000000" fill-rule="nonzero" fill-opacity="1"></path><path clip-path="url(#clip740)" d="M159.28 1076.52 L159.28 1070.09 L203.49 1070.09 Q212.084 1070.09 215.967 1073.36 Q219.85 1076.61 219.85 1083.84 L219.85 1086.29 L214.439 1086.29 L214.439 1084.28 Q214.439 1080.02 212.052 1078.27 Q209.665 1076.52 203.49 1076.52 L159.28 1076.52 Z" fill="#000000" fill-rule="nonzero" fill-opacity="1"></path><path clip-path="url(#clip740)" d="M217.622 1030.46 L222.174 1030.46 L222.174 1064.32 L217.622 1064.32 L217.622 1030.46 Z" fill="#000000" fill-rule="nonzero" fill-opacity="1"></path><path clip-path="url(#clip740)" d="M175.258 1011.14 Q175.258 1015.85 178.95 1018.59 Q182.611 1021.32 189.008 1021.32 Q195.406 1021.32 199.098 1018.62 Q202.758 1015.88 202.758 1011.14 Q202.758 1006.46 199.066 1003.72 Q195.374 1000.99 189.008 1000.99 Q182.674 1000.99 178.982 1003.72 Q175.258 1006.46 175.258 1011.14 M170.293 1011.14 Q170.293 1003.5 175.258 999.14 Q180.224 994.78 189.008 994.78 Q197.761 994.78 202.758 999.14 Q207.723 1003.5 207.723 1011.14 Q207.723 1018.81 202.758 1023.17 Q197.761 1027.5 189.008 1027.5 Q180.224 1027.5 175.258 1023.17 Q170.293 1018.81 170.293 1011.14 Z" fill="#000000" fill-rule="nonzero" fill-opacity="1"></path><path clip-path="url(#clip740)" d="M157.275 985.072 L157.275 979.215 L206.8 979.215 L206.8 985.072 L157.275 985.072 Z" fill="#000000" fill-rule="nonzero" fill-opacity="1"></path><path clip-path="url(#clip740)" d="M176.563 943.504 L157.275 943.504 L157.275 937.647 L206.8 937.647 L206.8 943.504 L201.453 943.504 Q204.636 945.35 206.196 948.183 Q207.723 950.983 207.723 954.93 Q207.723 961.391 202.567 965.465 Q197.411 969.508 189.008 969.508 Q180.605 969.508 175.449 965.465 Q170.293 961.391 170.293 954.93 Q170.293 950.983 171.853 948.183 Q173.38 945.35 176.563 943.504 M189.008 963.46 Q195.469 963.46 199.162 960.818 Q202.822 958.145 202.822 953.498 Q202.822 948.851 199.162 946.177 Q195.469 943.504 189.008 943.504 Q182.547 943.504 178.887 946.177 Q175.195 948.851 175.195 953.498 Q175.195 958.145 178.887 960.818 Q182.547 963.46 189.008 963.46 Z" fill="#000000" fill-rule="nonzero" fill-opacity="1"></path><path clip-path="url(#clip740)" d="M159.28 915.176 L159.28 909.766 L212.848 926.316 L212.848 931.727 L159.28 915.176 Z" fill="#000000" fill-rule="nonzero" fill-opacity="1"></path><path clip-path="url(#clip740)" d="M159.28 903.368 L159.28 896.939 L203.49 896.939 Q212.084 896.939 215.967 900.217 Q219.85 903.463 219.85 910.689 L219.85 913.139 L214.439 913.139 L214.439 911.134 Q214.439 906.869 212.052 905.119 Q209.665 903.368 203.49 903.368 L159.28 903.368 Z" fill="#000000" fill-rule="nonzero" fill-opacity="1"></path><path clip-path="url(#clip740)" d="M217.622 857.312 L222.174 857.312 L222.174 891.178 L217.622 891.178 L217.622 857.312 Z" fill="#000000" fill-rule="nonzero" fill-opacity="1"></path><path clip-path="url(#clip740)" d="M171.152 851.806 L171.152 845.949 L206.8 845.949 L206.8 851.806 L171.152 851.806 M157.275 851.806 L157.275 845.949 L164.691 845.949 L164.691 851.806 L157.275 851.806 Z" fill="#000000" fill-rule="nonzero" fill-opacity="1"></path><path clip-path="url(#clip740)" d="M185.284 804.063 L206.8 804.063 L206.8 809.919 L185.475 809.919 Q180.415 809.919 177.9 811.893 Q175.386 813.866 175.386 817.813 Q175.386 822.555 178.409 825.293 Q181.433 828.03 186.653 828.03 L206.8 828.03 L206.8 833.918 L171.152 833.918 L171.152 828.03 L176.691 828.03 Q173.476 825.929 171.884 823.096 Q170.293 820.232 170.293 816.508 Q170.293 810.365 174.112 807.214 Q177.9 804.063 185.284 804.063 Z" fill="#000000" fill-rule="nonzero" fill-opacity="1"></path><path clip-path="url(#clip740)" d="M171.152 792.382 L171.152 786.525 L206.8 786.525 L206.8 792.382 L171.152 792.382 M157.275 792.382 L157.275 786.525 L164.691 786.525 L164.691 792.382 L157.275 792.382 Z" fill="#000000" fill-rule="nonzero" fill-opacity="1"></path><path clip-path="url(#clip740)" d="M1061.08 35.9153 Q1063.88 30.8922 1067.77 28.5022 Q1071.66 26.1121 1076.92 26.1121 Q1084.01 26.1121 1087.86 31.0947 Q1091.71 36.0368 1091.71 45.1919 L1091.71 72.576 L1084.21 72.576 L1084.21 45.4349 Q1084.21 38.913 1081.91 35.7533 Q1079.6 32.5936 1074.86 32.5936 Q1069.06 32.5936 1065.7 36.4419 Q1062.34 40.2903 1062.34 46.9338 L1062.34 72.576 L1054.85 72.576 L1054.85 45.4349 Q1054.85 38.8725 1052.54 35.7533 Q1050.23 32.5936 1045.41 32.5936 Q1039.7 32.5936 1036.33 36.4824 Q1032.97 40.3308 1032.97 46.9338 L1032.97 72.576 L1025.48 72.576 L1025.48 27.2059 L1032.97 27.2059 L1032.97 34.2544 Q1035.52 30.082 1039.09 28.0971 Q1042.65 26.1121 1047.55 26.1121 Q1052.5 26.1121 1055.94 28.6237 Q1059.42 31.1352 1061.08 35.9153 Z" fill="#000000" fill-rule="nonzero" fill-opacity="1"></path><path clip-path="url(#clip740)" d="M1106.58 27.2059 L1114.03 27.2059 L1114.03 72.576 L1106.58 72.576 L1106.58 27.2059 M1106.58 9.54393 L1114.03 9.54393 L1114.03 18.9825 L1106.58 18.9825 L1106.58 9.54393 Z" fill="#000000" fill-rule="nonzero" fill-opacity="1"></path><path clip-path="url(#clip740)" d="M1158.55 28.5427 L1158.55 35.5912 Q1155.39 33.9709 1151.99 33.1607 Q1148.58 32.3505 1144.94 32.3505 Q1139.39 32.3505 1136.59 34.0519 Q1133.84 35.7533 1133.84 39.156 Q1133.84 41.7486 1135.82 43.2475 Q1137.81 44.7058 1143.8 46.0426 L1146.36 46.6097 Q1154.3 48.3111 1157.62 51.4303 Q1160.98 54.509 1160.98 60.0587 Q1160.98 66.3781 1155.96 70.0644 Q1150.97 73.7508 1142.22 73.7508 Q1138.58 73.7508 1134.61 73.0216 Q1130.68 72.3329 1126.3 70.9151 L1126.3 63.2184 Q1130.44 65.3654 1134.45 66.4591 Q1138.46 67.5124 1142.39 67.5124 Q1147.65 67.5124 1150.49 65.73 Q1153.32 63.9071 1153.32 60.6258 Q1153.32 57.5877 1151.26 55.9673 Q1149.23 54.3469 1142.3 52.8481 L1139.71 52.2405 Q1132.79 50.7821 1129.71 47.7845 Q1126.63 44.7463 1126.63 39.4801 Q1126.63 33.0797 1131.16 29.5959 Q1135.7 26.1121 1144.05 26.1121 Q1148.18 26.1121 1151.82 26.7198 Q1155.47 27.3274 1158.55 28.5427 Z" fill="#000000" fill-rule="nonzero" fill-opacity="1"></path><path clip-path="url(#clip740)" d="M1195.82 9.54393 L1195.82 15.7418 L1188.69 15.7418 Q1184.68 15.7418 1183.1 17.3622 Q1181.56 18.9825 1181.56 23.1955 L1181.56 27.2059 L1193.83 27.2059 L1193.83 32.9987 L1181.56 32.9987 L1181.56 72.576 L1174.06 72.576 L1174.06 32.9987 L1166.93 32.9987 L1166.93 27.2059 L1174.06 27.2059 L1174.06 24.0462 Q1174.06 16.471 1177.59 13.0277 Q1181.11 9.54393 1188.77 9.54393 L1195.82 9.54393 Z" fill="#000000" fill-rule="nonzero" fill-opacity="1"></path><path clip-path="url(#clip740)" d="M1202.06 27.2059 L1209.51 27.2059 L1209.51 72.576 L1202.06 72.576 L1202.06 27.2059 M1202.06 9.54393 L1209.51 9.54393 L1209.51 18.9825 L1202.06 18.9825 L1202.06 9.54393 Z" fill="#000000" fill-rule="nonzero" fill-opacity="1"></path><path clip-path="url(#clip740)" d="M1232.48 14.324 L1232.48 27.2059 L1247.83 27.2059 L1247.83 32.9987 L1232.48 32.9987 L1232.48 57.6282 Q1232.48 63.1779 1233.98 64.7578 Q1235.52 66.3376 1240.17 66.3376 L1247.83 66.3376 L1247.83 72.576 L1240.17 72.576 Q1231.55 72.576 1228.26 69.3758 Q1224.98 66.1351 1224.98 57.6282 L1224.98 32.9987 L1219.51 32.9987 L1219.51 27.2059 L1224.98 27.2059 L1224.98 14.324 L1232.48 14.324 Z" fill="#000000" fill-rule="nonzero" fill-opacity="1"></path><polyline clip-path="url(#clip742)" style="stroke:#009af9; stroke-linecap:round; stroke-linejoin:round; stroke-width:14; stroke-opacity:1; fill:none" points="508.478,302.012 550.357,307.739 592.235,313.995 634.113,321.006 675.992,329.09 717.87,338.296 759.748,348.925 801.627,361.289 843.505,375.964 885.384,393.401 927.262,414.34 969.14,439.802 1011.02,471.299 1052.9,509.523 1094.78,554.026 1136.65,603.85 1178.53,657.828 1220.41,714.236 1262.29,771.999 1304.17,832.994 1346.05,895.461 1387.92,960.199 1429.8,1030.96 1471.68,1109.81 1513.56,1195.32 1555.44,1287.35 1597.32,1377.04 1639.19,1442.85 1681.07,1492.95 1722.95,1536.62 1764.83,1570.8 "></polyline>
<circle clip-path="url(#clip742)" cx="508.478" cy="302.012" r="14.4" fill="#009af9" fill-rule="evenodd" fill-opacity="1" stroke="#000000" stroke-opacity="1" stroke-width="3.92"></circle>
<circle clip-path="url(#clip742)" cx="550.357" cy="307.739" r="14.4" fill="#009af9" fill-rule="evenodd" fill-opacity="1" stroke="#000000" stroke-opacity="1" stroke-width="3.92"></circle>
<circle clip-path="url(#clip742)" cx="592.235" cy="313.995" r="14.4" fill="#009af9" fill-rule="evenodd" fill-opacity="1" stroke="#000000" stroke-opacity="1" stroke-width="3.92"></circle>
<circle clip-path="url(#clip742)" cx="634.113" cy="321.006" r="14.4" fill="#009af9" fill-rule="evenodd" fill-opacity="1" stroke="#000000" stroke-opacity="1" stroke-width="3.92"></circle>
<circle clip-path="url(#clip742)" cx="675.992" cy="329.09" r="14.4" fill="#009af9" fill-rule="evenodd" fill-opacity="1" stroke="#000000" stroke-opacity="1" stroke-width="3.92"></circle>
<circle clip-path="url(#clip742)" cx="717.87" cy="338.296" r="14.4" fill="#009af9" fill-rule="evenodd" fill-opacity="1" stroke="#000000" stroke-opacity="1" stroke-width="3.92"></circle>
<circle clip-path="url(#clip742)" cx="759.748" cy="348.925" r="14.4" fill="#009af9" fill-rule="evenodd" fill-opacity="1" stroke="#000000" stroke-opacity="1" stroke-width="3.92"></circle>
<circle clip-path="url(#clip742)" cx="801.627" cy="361.289" r="14.4" fill="#009af9" fill-rule="evenodd" fill-opacity="1" stroke="#000000" stroke-opacity="1" stroke-width="3.92"></circle>
<circle clip-path="url(#clip742)" cx="843.505" cy="375.964" r="14.4" fill="#009af9" fill-rule="evenodd" fill-opacity="1" stroke="#000000" stroke-opacity="1" stroke-width="3.92"></circle>
<circle clip-path="url(#clip742)" cx="885.384" cy="393.401" r="14.4" fill="#009af9" fill-rule="evenodd" fill-opacity="1" stroke="#000000" stroke-opacity="1" stroke-width="3.92"></circle>
<circle clip-path="url(#clip742)" cx="927.262" cy="414.34" r="14.4" fill="#009af9" fill-rule="evenodd" fill-opacity="1" stroke="#000000" stroke-opacity="1" stroke-width="3.92"></circle>
<circle clip-path="url(#clip742)" cx="969.14" cy="439.802" r="14.4" fill="#009af9" fill-rule="evenodd" fill-opacity="1" stroke="#000000" stroke-opacity="1" stroke-width="3.92"></circle>
<circle clip-path="url(#clip742)" cx="1011.02" cy="471.299" r="14.4" fill="#009af9" fill-rule="evenodd" fill-opacity="1" stroke="#000000" stroke-opacity="1" stroke-width="3.92"></circle>
<circle clip-path="url(#clip742)" cx="1052.9" cy="509.523" r="14.4" fill="#009af9" fill-rule="evenodd" fill-opacity="1" stroke="#000000" stroke-opacity="1" stroke-width="3.92"></circle>
<circle clip-path="url(#clip742)" cx="1094.78" cy="554.026" r="14.4" fill="#009af9" fill-rule="evenodd" fill-opacity="1" stroke="#000000" stroke-opacity="1" stroke-width="3.92"></circle>
<circle clip-path="url(#clip742)" cx="1136.65" cy="603.85" r="14.4" fill="#009af9" fill-rule="evenodd" fill-opacity="1" stroke="#000000" stroke-opacity="1" stroke-width="3.92"></circle>
<circle clip-path="url(#clip742)" cx="1178.53" cy="657.828" r="14.4" fill="#009af9" fill-rule="evenodd" fill-opacity="1" stroke="#000000" stroke-opacity="1" stroke-width="3.92"></circle>
<circle clip-path="url(#clip742)" cx="1220.41" cy="714.236" r="14.4" fill="#009af9" fill-rule="evenodd" fill-opacity="1" stroke="#000000" stroke-opacity="1" stroke-width="3.92"></circle>
<circle clip-path="url(#clip742)" cx="1262.29" cy="771.999" r="14.4" fill="#009af9" fill-rule="evenodd" fill-opacity="1" stroke="#000000" stroke-opacity="1" stroke-width="3.92"></circle>
<circle clip-path="url(#clip742)" cx="1304.17" cy="832.994" r="14.4" fill="#009af9" fill-rule="evenodd" fill-opacity="1" stroke="#000000" stroke-opacity="1" stroke-width="3.92"></circle>
<circle clip-path="url(#clip742)" cx="1346.05" cy="895.461" r="14.4" fill="#009af9" fill-rule="evenodd" fill-opacity="1" stroke="#000000" stroke-opacity="1" stroke-width="3.92"></circle>
<circle clip-path="url(#clip742)" cx="1387.92" cy="960.199" r="14.4" fill="#009af9" fill-rule="evenodd" fill-opacity="1" stroke="#000000" stroke-opacity="1" stroke-width="3.92"></circle>
<circle clip-path="url(#clip742)" cx="1429.8" cy="1030.96" r="14.4" fill="#009af9" fill-rule="evenodd" fill-opacity="1" stroke="#000000" stroke-opacity="1" stroke-width="3.92"></circle>
<circle clip-path="url(#clip742)" cx="1471.68" cy="1109.81" r="14.4" fill="#009af9" fill-rule="evenodd" fill-opacity="1" stroke="#000000" stroke-opacity="1" stroke-width="3.92"></circle>
<circle clip-path="url(#clip742)" cx="1513.56" cy="1195.32" r="14.4" fill="#009af9" fill-rule="evenodd" fill-opacity="1" stroke="#000000" stroke-opacity="1" stroke-width="3.92"></circle>
<circle clip-path="url(#clip742)" cx="1555.44" cy="1287.35" r="14.4" fill="#009af9" fill-rule="evenodd" fill-opacity="1" stroke="#000000" stroke-opacity="1" stroke-width="3.92"></circle>
<circle clip-path="url(#clip742)" cx="1597.32" cy="1377.04" r="14.4" fill="#009af9" fill-rule="evenodd" fill-opacity="1" stroke="#000000" stroke-opacity="1" stroke-width="3.92"></circle>
<circle clip-path="url(#clip742)" cx="1639.19" cy="1442.85" r="14.4" fill="#009af9" fill-rule="evenodd" fill-opacity="1" stroke="#000000" stroke-opacity="1" stroke-width="3.92"></circle>
<circle clip-path="url(#clip742)" cx="1681.07" cy="1492.95" r="14.4" fill="#009af9" fill-rule="evenodd" fill-opacity="1" stroke="#000000" stroke-opacity="1" stroke-width="3.92"></circle>
<circle clip-path="url(#clip742)" cx="1722.95" cy="1536.62" r="14.4" fill="#009af9" fill-rule="evenodd" fill-opacity="1" stroke="#000000" stroke-opacity="1" stroke-width="3.92"></circle>
<circle clip-path="url(#clip742)" cx="1764.83" cy="1570.8" r="14.4" fill="#009af9" fill-rule="evenodd" fill-opacity="1" stroke="#000000" stroke-opacity="1" stroke-width="3.92"></circle>
</svg>